<?xml version="1.0" encoding="UTF-8"?>
<svg id="Layer_1" data-name="Layer 1" xmlns="http://www.w3.org/2000/svg" viewBox="0 0 182.36 36.14">
  <defs>
    <style>
      .cls-1 {
        fill: #fff;
      }
    </style>
  </defs>
  <path class="cls-1" d="M.1,22.6h.87c1.16,5.44,4.82,12.67,11.32,12.67,4.14,0,6.94-2.55,6.94-6.79C19.22,17.97,0,25.54,0,11.03,0,4.67,4.24.67,10.6.67c4.87,0,6.41,2.6,8.58,2.6,1.45,0,1.54-1.25,1.54-1.88h.87v10.84h-.87c-1.2-5.11-3.9-10.7-9.97-10.7-3.66,0-6.41,2.46-6.41,6.17,0,9.3,19.51,1.98,19.51,16.28,0,7.52-4.24,12.14-11.03,12.14-4.19,0-8.14-2.51-10.07-2.51-1.3,0-1.78.87-1.78,1.78H.1v-12.82Z"/>
  <path class="cls-1" d="M53.83,34.5h3.32V2.31h-3.32v-.87h3.04c3.42,0,6.07,0,6.94-1.45v34.5h3.32v.87h-13.3v-.87Z"/>
  <path class="cls-1" d="M83.37,14.16h3.42c1.98,0,5.54,0,6.55-1.25v21.58h3.32v.87h-9.97v-4.05h-.1c-1.3,2.94-4.48,4.63-7.71,4.63-4.58,0-6.79-2.26-6.79-7.47v-13.44h-3.32v-.87h3.42c1.98,0,5.54,0,6.55-1.25v16.77c0,2.84.48,4.53,2.79,4.53,2.7,0,5.16-3.61,5.16-6.65v-12.53h-3.32v-.87Z"/>
  <path class="cls-1" d="M98.68,15.03v-.87c4.87,0,8.34-5.25,8.34-10.36h.87v10.36h4.43v.87h-4.43v16.38c0,1.59.63,2.51,1.88,2.51s1.98-1.16,2.55-2.02l.63.34c-1.49,2.51-3.47,3.71-6.41,3.71-1.35,0-5.3-.92-5.3-5.49v-15.42h-2.55Z"/>
  <polygon class="cls-1" points="124.84 14.5 124.84 34.5 128.17 34.5 128.17 35.36 114.87 35.36 114.87 34.5 118.19 34.5 118.19 15.03 114.87 15.03 114.87 14.16 120.26 14.16 124.84 14.5"/>
  <path class="cls-1" d="M121.52,1.64c2.17,0,3.9,1.73,3.9,3.9s-1.73,3.9-3.9,3.9-3.9-1.73-3.9-3.9,1.73-3.9,3.9-3.9Z"/>
  <path class="cls-1" d="M126.55,34.5h7.1V15.03h-13.97v-.87h14.06c1.98,0,5.54,0,6.55-1.25v21.58h3.32v.87h-17.08v-.87Z"/>
  <path class="cls-1" d="M136.98,1.64c2.17,0,3.9,1.73,3.9,3.9s-1.73,3.9-3.9,3.9-3.9-1.73-3.9-3.9,1.73-3.9,3.9-3.9Z"/>
  <path class="cls-1" d="M146.04,15.03h-2.07v-.87h12.09v.87h-2.89l5.64,12.67,3.28-7.71c.58-1.35.82-2.41.82-3.18,0-1.25-.82-1.78-2.22-1.78h-.92v-.87h7.52v.87h-.43c-1.11.05-2.12,1.35-3.32,4.05l-7.13,16.86h-1.3l-9.06-20.91Z"/>
  <path class="cls-1" d="M169.06,34.5h3.32V15.03h-3.32v-.87h3.42c1.98,0,5.54,0,6.55-1.25v21.58h3.32v.87h-13.3v-.87Z"/>
  <path class="cls-1" d="M175.71,1.64c2.17,0,3.9,1.73,3.9,3.9s-1.73,3.9-3.9,3.9-3.9-1.73-3.9-3.9,1.73-3.9,3.9-3.9Z"/>
  <g>
    <path class="cls-1" d="M32.17,23.6c1.23-2.07,2.49-4.14,3.76-6.15.8-1.24,1.62-2.51,2.45-3.79-5.72.6-10.12,4.98-10.12,11.11,0,1.55.28,2.98.79,4.27,1.07-1.91,2.12-3.74,3.12-5.44Z"/>
    <path class="cls-1" d="M46.79,23.22c-.04.06-.07.12-.11.18.12-.1.24-.2.36-.31.45-.37.94-.73,1.44-1.06.5-.33,1.01-.61,1.5-.83.2-.09.4-.16.59-.22-1.54-4.5-5.8-7.39-10.85-7.39-.02,0-.04,0-.06,0-.25.42-.5.84-.76,1.28-1.39,2.38-2.92,5.19-4.55,8.35.02-.01.03-.03.05-.04.47-.37.99-.75,1.55-1.13.56-.38,1.12-.71,1.65-.99.57-.3,1.05-.45,1.47-.45.5,0,.68.3.68.59,0,.25-.15.56-.47.99-.24.36-.56.86-.96,1.51-.4.65-.79,1.34-1.17,2.07-.38.73-.71,1.45-.99,2.15-.26.68-.4,1.22-.4,1.62,0,.42.1.73.29.93.2.2.47.29.83.29.65,0,1.62-.45,2.86-1.34.89-.64,1.89-1.61,2.98-2.9l1.09-1.89c.45-.77.84-1.45,1.18-2.02.33-.56.56-.98.68-1.25.21-.39.36-.57.56-.57.11,0,.24.04.6.27.32.2.49.5.49.87,0,.14-.06.32-.19.58-.11.22-.24.45-.38.69Z"/>
    <path class="cls-1" d="M50.87,23.39c-.05-.08-.13-.17-.22-.26-.09-.09-.21-.17-.37-.25-.15-.07-.37-.11-.67-.11-.35,0-.76.13-1.22.38-.47.27-.89.57-1.25.89-.58.49-1.09,1.02-1.52,1.59-.44.58-.87,1.19-1.26,1.81-.39.62-.78,1.27-1.15,1.94-.37.66-.77,1.34-1.2,2.01-.05.12-.18.28-.51.28-.15,0-.3-.09-.57-.35-.27-.25-.39-.43-.39-.61,0-.24.11-.55.36-.97.09-.16.19-.33.28-.49-.28.25-.56.5-.84.73-.83.69-1.67,1.25-2.51,1.68-.85.43-1.65.65-2.37.65-.59,0-1.07-.17-1.43-.51-.36-.34-.55-.82-.55-1.42,0-.53.18-1.21.53-2.01.34-.78.73-1.57,1.14-2.36.42-.79.79-1.51,1.13-2.18.36-.7.46-1.06.48-1.24-.18.05-.54.22-1.23.72-.7.51-1.6,1.49-2.66,2.91-.41.74-.86,1.55-1.33,2.38-.46.83-.86,1.57-1.2,2.22-.05.1-.11.21-.18.32,2.05,2.98,5.55,4.78,9.55,4.78,6.36,0,11.47-4.58,11.47-11.18,0-.39-.02-.77-.05-1.14-.13-.04-.22-.17-.27-.24Z"/>
  </g>
</svg>